<?xml version="1.0" encoding="utf-8"?>
<svg width="183" height="40" viewBox="0 0 165.333 40" fill="none" xmlns="http://www.w3.org/2000/svg">
  <g filter="" transform="matrix(1.333333, 0, 0, 1.333333, -1.333333, -1.333333)" style="">
    <rect x="1" y="1" width="124" height="30" rx="4.153" fill="#130F26" ry="4.153"/>
  </g>
  <path d="M 41.048 25.333 L 38.939 25.333 L 38.939 12.304 L 44.557 12.304 C 45.727 12.304 46.648 12.659 47.32 13.368 C 47.992 14.065 48.328 15.017 48.328 16.224 C 48.328 17.157 48.111 17.935 47.675 18.557 C 47.252 19.167 46.623 19.596 45.789 19.845 L 48.608 25.333 L 46.256 25.333 L 43.643 20.069 L 41.048 20.069 L 41.048 25.333 Z M 44.408 18.296 C 44.943 18.296 45.36 18.159 45.659 17.885 C 45.957 17.599 46.107 17.195 46.107 16.672 L 46.107 15.776 C 46.107 15.253 45.957 14.855 45.659 14.581 C 45.36 14.295 44.943 14.152 44.408 14.152 L 41.048 14.152 L 41.048 18.296 L 44.408 18.296 Z" fill="#F5F9FC" style=""/>
  <path d="M 56.901 23.728 L 56.827 23.728 C 56.74 23.964 56.621 24.195 56.472 24.419 C 56.335 24.643 56.155 24.841 55.931 25.016 C 55.719 25.177 55.457 25.308 55.147 25.408 C 54.848 25.508 54.5 25.557 54.101 25.557 C 53.093 25.557 52.309 25.233 51.749 24.587 C 51.201 23.94 50.928 23.012 50.928 21.805 L 50.928 15.627 L 52.963 15.627 L 52.963 21.544 C 52.963 23.049 53.585 23.803 54.829 23.803 C 55.091 23.803 55.345 23.772 55.595 23.709 C 55.844 23.635 56.061 23.529 56.248 23.392 C 56.447 23.255 56.603 23.081 56.715 22.869 C 56.839 22.657 56.901 22.409 56.901 22.123 L 56.901 15.627 L 58.936 15.627 L 58.936 25.333 L 56.901 25.333 L 56.901 23.728 Z" fill="#F5F9FC" style=""/>
  <path d="M 61.849 25.333 L 61.849 15.627 L 63.884 15.627 L 63.884 17.232 L 63.977 17.232 C 64.189 16.709 64.507 16.273 64.929 15.925 C 65.365 15.577 65.956 15.403 66.703 15.403 C 67.699 15.403 68.469 15.732 69.017 16.392 C 69.577 17.039 69.857 17.967 69.857 19.173 L 69.857 25.333 L 67.823 25.333 L 67.823 19.435 C 67.823 17.916 67.213 17.157 65.993 17.157 C 65.732 17.157 65.471 17.195 65.209 17.269 C 64.96 17.332 64.736 17.431 64.537 17.568 C 64.339 17.705 64.176 17.879 64.052 18.091 C 63.94 18.303 63.884 18.551 63.884 18.837 L 63.884 25.333 L 61.849 25.333 Z" fill="#F5F9FC" style=""/>
  <path d="M 80.897 25.557 C 80.225 25.557 79.609 25.439 79.049 25.203 C 78.501 24.967 78.035 24.631 77.649 24.195 C 77.263 23.747 76.964 23.212 76.753 22.589 C 76.541 21.955 76.436 21.252 76.436 20.48 C 76.436 19.708 76.541 19.012 76.753 18.389 C 76.964 17.755 77.263 17.22 77.649 16.784 C 78.035 16.336 78.501 15.993 79.049 15.757 C 79.609 15.521 80.225 15.403 80.897 15.403 C 81.569 15.403 82.179 15.521 82.727 15.757 C 83.287 15.993 83.759 16.336 84.145 16.784 C 84.531 17.22 84.829 17.755 85.041 18.389 C 85.252 19.012 85.359 19.708 85.359 20.48 C 85.359 21.252 85.252 21.955 85.041 22.589 C 84.829 23.212 84.531 23.747 84.145 24.195 C 83.759 24.631 83.287 24.967 82.727 25.203 C 82.179 25.439 81.569 25.557 80.897 25.557 Z M 80.897 23.877 C 81.593 23.877 82.153 23.665 82.577 23.243 C 83 22.807 83.212 22.16 83.212 21.301 L 83.212 19.659 C 83.212 18.8 83 18.159 82.577 17.736 C 82.153 17.3 81.593 17.083 80.897 17.083 C 80.2 17.083 79.64 17.3 79.217 17.736 C 78.793 18.159 78.583 18.8 78.583 19.659 L 78.583 21.301 C 78.583 22.16 78.793 22.807 79.217 23.243 C 79.64 23.665 80.2 23.877 80.897 23.877 Z" fill="#F5F9FC" style=""/>
  <path d="M 87.625 25.333 L 87.625 15.627 L 89.66 15.627 L 89.66 17.232 L 89.753 17.232 C 89.965 16.709 90.283 16.273 90.705 15.925 C 91.141 15.577 91.732 15.403 92.479 15.403 C 93.475 15.403 94.245 15.732 94.793 16.392 C 95.353 17.039 95.633 17.967 95.633 19.173 L 95.633 25.333 L 93.599 25.333 L 93.599 19.435 C 93.599 17.916 92.989 17.157 91.769 17.157 C 91.508 17.157 91.247 17.195 90.985 17.269 C 90.736 17.332 90.512 17.431 90.313 17.568 C 90.115 17.705 89.952 17.879 89.828 18.091 C 89.716 18.303 89.66 18.551 89.66 18.837 L 89.66 25.333 L 87.625 25.333 Z" fill="#F5F9FC" style=""/>
  <path d="M 105.124 25.333 L 103.015 25.333 L 103.015 12.304 L 108.633 12.304 C 109.803 12.304 110.724 12.659 111.396 13.368 C 112.068 14.065 112.404 15.017 112.404 16.224 C 112.404 17.157 112.185 17.935 111.751 18.557 C 111.327 19.167 110.699 19.596 109.865 19.845 L 112.684 25.333 L 110.332 25.333 L 107.719 20.069 L 105.124 20.069 L 105.124 25.333 Z M 108.484 18.296 C 109.019 18.296 109.436 18.159 109.735 17.885 C 110.033 17.599 110.183 17.195 110.183 16.672 L 110.183 15.776 C 110.183 15.253 110.033 14.855 109.735 14.581 C 109.436 14.295 109.019 14.152 108.484 14.152 L 105.124 14.152 L 105.124 18.296 L 108.484 18.296 Z" fill="#F5F9FC" style=""/>
  <path d="M 118.632 25.557 C 117.935 25.557 117.312 25.439 116.765 25.203 C 116.217 24.967 115.751 24.631 115.365 24.195 C 114.979 23.747 114.68 23.212 114.469 22.589 C 114.269 21.955 114.171 21.252 114.171 20.48 C 114.171 19.708 114.269 19.012 114.469 18.389 C 114.68 17.755 114.979 17.22 115.365 16.784 C 115.751 16.336 116.217 15.993 116.765 15.757 C 117.312 15.521 117.935 15.403 118.632 15.403 C 119.341 15.403 119.963 15.527 120.499 15.776 C 121.045 16.025 121.5 16.373 121.861 16.821 C 122.221 17.257 122.489 17.767 122.664 18.352 C 122.851 18.937 122.944 19.565 122.944 20.237 L 122.944 21.003 L 116.28 21.003 L 116.28 21.32 C 116.28 22.067 116.497 22.683 116.933 23.168 C 117.381 23.641 118.016 23.877 118.837 23.877 C 119.435 23.877 119.939 23.747 120.349 23.485 C 120.76 23.224 121.108 22.869 121.395 22.421 L 122.589 23.597 C 122.228 24.195 121.705 24.673 121.021 25.035 C 120.336 25.383 119.54 25.557 118.632 25.557 Z M 118.632 16.989 C 118.283 16.989 117.96 17.052 117.661 17.176 C 117.375 17.3 117.125 17.475 116.915 17.699 C 116.715 17.923 116.56 18.191 116.448 18.501 C 116.336 18.812 116.28 19.155 116.28 19.528 L 116.28 19.659 L 120.797 19.659 L 120.797 19.472 C 120.797 18.725 120.604 18.128 120.219 17.68 C 119.832 17.22 119.304 16.989 118.632 16.989 Z" fill="#F5F9FC" style=""/>
  <path d="M 125.196 15.627 L 127.231 15.627 L 127.231 17.232 L 127.324 17.232 C 127.536 16.647 127.877 16.199 128.351 15.888 C 128.836 15.564 129.403 15.403 130.049 15.403 C 131.281 15.403 132.233 15.851 132.905 16.747 C 133.577 17.631 133.913 18.875 133.913 20.48 C 133.913 22.085 133.577 23.336 132.905 24.232 C 132.233 25.116 131.281 25.557 130.049 25.557 C 129.403 25.557 128.836 25.396 128.351 25.072 C 127.877 24.748 127.536 24.3 127.324 23.728 L 127.231 23.728 L 127.231 29.067 L 125.196 29.067 L 125.196 15.627 Z M 129.433 23.803 C 130.143 23.803 130.709 23.579 131.132 23.131 C 131.555 22.671 131.767 22.067 131.767 21.32 L 131.767 19.64 C 131.767 18.893 131.555 18.296 131.132 17.848 C 130.709 17.388 130.143 17.157 129.433 17.157 C 128.811 17.157 128.288 17.313 127.865 17.624 C 127.443 17.923 127.231 18.321 127.231 18.819 L 127.231 22.141 C 127.231 22.639 127.443 23.044 127.865 23.355 C 128.288 23.653 128.811 23.803 129.433 23.803 Z" fill="#F5F9FC" style=""/>
  <path d="M 138.315 25.333 C 137.617 25.333 137.095 25.159 136.747 24.811 C 136.411 24.449 136.243 23.952 136.243 23.317 L 136.243 11.52 L 138.277 11.52 L 138.277 23.672 L 139.621 23.672 L 139.621 25.333 L 138.315 25.333 Z" fill="#F5F9FC" style=""/>
  <path d="M 142.592 13.891 C 142.169 13.891 141.857 13.791 141.659 13.592 C 141.472 13.393 141.379 13.137 141.379 12.827 L 141.379 12.509 C 141.379 12.199 141.472 11.943 141.659 11.744 C 141.857 11.545 142.169 11.445 142.592 11.445 C 143.015 11.445 143.32 11.545 143.507 11.744 C 143.693 11.943 143.787 12.199 143.787 12.509 L 143.787 12.827 C 143.787 13.137 143.693 13.393 143.507 13.592 C 143.32 13.791 143.015 13.891 142.592 13.891 Z M 141.565 15.627 L 143.6 15.627 L 143.6 25.333 L 141.565 25.333 L 141.565 15.627 Z" fill="#F5F9FC" style=""/>
  <path d="M 149.193 25.333 C 148.484 25.333 147.949 25.153 147.588 24.792 C 147.228 24.419 147.047 23.896 147.047 23.224 L 147.047 17.288 L 145.535 17.288 L 145.535 15.627 L 146.356 15.627 C 146.692 15.627 146.923 15.552 147.047 15.403 C 147.184 15.253 147.252 15.011 147.252 14.675 L 147.252 12.976 L 149.081 12.976 L 149.081 15.627 L 151.116 15.627 L 151.116 17.288 L 149.081 17.288 L 149.081 23.672 L 150.967 23.672 L 150.967 25.333 L 149.193 25.333 Z" fill="#F5F9FC" style=""/>
  <path d="M 16.025 18.787 C 16.025 18.787 13.113 29.515 24.784 29.608 C 28.445 28.245 31.143 24.904 31.552 20.875 C 31.58 20.596 31.588 20.312 31.595 20.027 C 31.596 19.952 31.605 19.879 31.605 19.804 C 31.605 19.48 31.587 19.16 31.557 18.843 C 28.475 30.98 14.835 26.225 16.025 18.787 Z" fill="#F5F9FC" style=""/>
  <path d="M 22.059 14.805 C 22.059 14.805 11.193 11.771 11.361 23.619 C 11.917 25.051 12.783 26.343 13.893 27.404 C 13.94 27.448 13.988 27.489 14.035 27.533 C 14.349 27.823 14.681 28.093 15.028 28.341 C 15.081 28.38 15.132 28.423 15.187 28.46 C 15.553 28.712 15.936 28.939 16.333 29.141 C 16.448 29.2 16.567 29.255 16.683 29.309 C 17.024 29.471 17.373 29.612 17.729 29.735 C 17.817 29.764 17.901 29.801 17.989 29.829 C 18.417 29.96 18.852 30.063 19.292 30.137 C 19.425 30.161 19.56 30.18 19.696 30.199 C 20.152 30.265 20.613 30.301 21.075 30.307 C 21.093 30.307 21.109 30.309 21.128 30.309 C 21.476 30.309 21.82 30.291 22.159 30.257 C 9.968 27.349 14.601 13.717 22.059 14.805 Z" fill="#F5F9FC" style=""/>
  <path d="M 26.295 20.424 C 26.295 20.424 28.865 9.587 17.293 10.071 C 13.413 11.603 10.667 15.379 10.667 19.803 C 10.671 20.279 10.707 20.755 10.775 21.227 C 13.209 8.965 27.083 12.936 26.295 20.424 Z" fill="#F5F9FC" style=""/>
  <path d="M 20.739 25.088 C 20.739 25.088 31.623 26.508 30.941 16.16 C 29.46 12.176 25.635 9.333 21.136 9.333 C 20.499 9.336 19.864 9.396 19.237 9.513 C 31.365 11.003 28.213 25.193 20.739 25.088 Z" fill="#F5F9FC" style=""/>
  <path d="M 24.157 19.804 C 24.157 20.384 23.985 20.951 23.664 21.433 C 23.341 21.916 22.883 22.292 22.347 22.513 C 21.812 22.736 21.221 22.793 20.653 22.68 C 20.084 22.567 19.561 22.288 19.151 21.877 C 18.741 21.467 18.461 20.944 18.349 20.376 C 18.236 19.807 18.295 19.217 18.516 18.681 C 18.739 18.145 19.115 17.688 19.597 17.365 C 20.079 17.043 20.647 16.872 21.227 16.872 C 22.004 16.872 22.749 17.181 23.299 17.731 C 23.849 18.281 24.157 19.027 24.157 19.804 Z" fill="#F5F9FC" style=""/>
</svg>